# xmcd
#
# Track frame offsets:
#	150
#	8820
#	20866
#	37576
#	52483
#	66407
#	79797
#	93784
#	105791
#	119882
#	133451
#	150560
#	165145
#	182282
#	198232
#	214157
#	230655
#	247422
#	259260
#	276885
#	295854
#
# Disc length: 4124 seconds
#
# Revision: 0
# Processed by: cddbd v1.5.2PL0 Copyright (c) Steve Scherf et al.
# Submitted via: EZCDAudioConverter 7.1.0.1
#
DISCID=2f101a15
DTITLE=Nu Urban Traxx Volume 260 US
DYEAR=2019
DGENRE=R&B
TTITLE0=Lil Nas X - Old Town Road
TTITLE1=City Girls - Act Up
TTITLE2=Chris Brown - Back To Love
TTITLE3=B. Smyth - Too Many Reasons
TTITLE4=Jacquees ft. Lil Baby - Your Peace
TTITLE5=Wiley, Sean Paul and Steflon Don ft. Idris Elba - Boasty
TTITLE6=SAINt JHN ft. Lil Baby - Trap
TTITLE7=The Bonfyre - Automatic
TTITLE8=Teyana Taylor - Issues/Hold On
TTITLE9=Iggy Azalea - Sally Walker
TTITLE10=Khalid ft. Megan Thee Stallion and Yo Gotti - Talk [Remix]
TTITLE11=LightSkinKeisha ft. Yella Beezy - Hey LightSkin
TTITLE12=Yella Beezy ft. Quavo and Gucci Mane - Bacc At It Again
TTITLE13=Icewear Vezzo ft. Big Sean - Balance
TTITLE14=Lil Tjay - Brothers
TTITLE15=Nav ft. The Weeknd - Price On My Head
TTITLE16=Summer Walker ft. Drake - Girls Need Love [Remix]
TTITLE17=Lil Nas X ft. Billy Ray Cyrus - Old Town Road [Remix]
TTITLE18=Derek King - Tetris
TTITLE19=Kirk Franklin - Love Theory
TTITLE20=Melii ft. A Boogie Wit Da Hoodie - HML (Hit My Line)
EXTD=
EXTT0=
EXTT1=
EXTT2=
EXTT3=
EXTT4=
EXTT5=
EXTT6=
EXTT7=
EXTT8=
EXTT9=
EXTT10=
EXTT11=
EXTT12=
EXTT13=
EXTT14=
EXTT15=
EXTT16=
EXTT17=
EXTT18=
EXTT19=
EXTT20=
PLAYORDER=
